<?xml version="1.0" encoding="utf-8"?>
<COLLADA xmlns="http://www.collada.org/2005/11/COLLADASchema" version="1.4.1">
  <asset>
    <unit name="meter" meter="1"/>
    <up_axis>Z_UP</up_axis>
  </asset>
  <library_effects>
    <effect id="red-effect">
      <profile_COMMON>
        <technique sid="common">
          <phong>
            <emission><color>0.25 0.02 0.01 1</color></emission>
            <ambient><color>0.95 0.08 0.05 1</color></ambient>
            <diffuse><color>0.95 0.08 0.05 1</color></diffuse>
            <specular><color>0.2 0.05 0.05 1</color></specular>
            <shininess><float>8</float></shininess>
          </phong>
        </technique>
      </profile_COMMON>
    </effect>
  </library_effects>
  <library_materials>
    <material id="red-material" name="red">
      <instance_effect url="#red-effect"/>
    </material>
  </library_materials>
  <library_geometries>
    <geometry id="cube-mesh" name="cube">
      <mesh>
        <source id="cube-positions">
          <float_array id="cube-positions-array" count="72">0.02000 -0.02000 -0.02000 0.02000 0.02000 -0.02000 0.02000 0.02000 0.02000 0.02000 -0.02000 0.02000 -0.02000 -0.02000 -0.02000 -0.02000 -0.02000 0.02000 -0.02000 0.02000 0.02000 -0.02000 0.02000 -0.02000 -0.02000 0.02000 -0.02000 -0.02000 0.02000 0.02000 0.02000 0.02000 0.02000 0.02000 0.02000 -0.02000 -0.02000 -0.02000 -0.02000 0.02000 -0.02000 -0.02000 0.02000 -0.02000 0.02000 -0.02000 -0.02000 0.02000 -0.02000 -0.02000 0.02000 0.02000 -0.02000 0.02000 0.02000 0.02000 0.02000 -0.02000 0.02000 0.02000 -0.02000 -0.02000 -0.02000 -0.02000 0.02000 -0.02000 0.02000 0.02000 -0.02000 0.02000 -0.02000 -0.02000</float_array>
          <technique_common>
            <accessor source="#cube-positions-array" count="24" stride="3">
              <param name="X" type="float"/>
              <param name="Y" type="float"/>
              <param name="Z" type="float"/>
            </accessor>
          </technique_common>
        </source>
        <source id="cube-normals">
          <float_array id="cube-normals-array" count="72">1.0 0.0 0.0 1.0 0.0 0.0 1.0 0.0 0.0 1.0 0.0 0.0 -1.0 0.0 0.0 -1.0 0.0 0.0 -1.0 0.0 0.0 -1.0 0.0 0.0 0.0 1.0 0.0 0.0 1.0 0.0 0.0 1.0 0.0 0.0 1.0 0.0 0.0 -1.0 0.0 0.0 -1.0 0.0 0.0 -1.0 0.0 0.0 -1.0 0.0 0.0 0.0 1.0 0.0 0.0 1.0 0.0 0.0 1.0 0.0 0.0 1.0 0.0 0.0 -1.0 0.0 0.0 -1.0 0.0 0.0 -1.0 0.0 0.0 -1.0</float_array>
          <technique_common>
            <accessor source="#cube-normals-array" count="24" stride="3">
              <param name="X" type="float"/>
              <param name="Y" type="float"/>
              <param name="Z" type="float"/>
            </accessor>
          </technique_common>
        </source>
        <source id="cube-uvs">
          <float_array id="cube-uvs-array" count="48">0.0 0.0 1.0 0.0 1.0 1.0 0.0 1.0 0.0 0.0 1.0 0.0 1.0 1.0 0.0 1.0 0.0 0.0 1.0 0.0 1.0 1.0 0.0 1.0 0.0 0.0 1.0 0.0 1.0 1.0 0.0 1.0 0.0 0.0 1.0 0.0 1.0 1.0 0.0 1.0 0.0 0.0 1.0 0.0 1.0 1.0 0.0 1.0</float_array>
          <technique_common>
            <accessor source="#cube-uvs-array" count="24" stride="2">
              <param name="S" type="float"/>
              <param name="T" type="float"/>
            </accessor>
          </technique_common>
        </source>
        <vertices id="cube-vertices">
          <input semantic="POSITION" source="#cube-positions"/>
        </vertices>
        <triangles material="red" count="12">
          <input semantic="VERTEX" source="#cube-vertices" offset="0"/>
          <input semantic="NORMAL" source="#cube-normals" offset="0"/>
          <input semantic="TEXCOORD" source="#cube-uvs" offset="0" set="0"/>
          <p>0 1 2 0 2 3 4 5 6 4 6 7 8 9 10 8 10 11 12 13 14 12 14 15 16 17 18 16 18 19 20 21 22 20 22 23</p>
        </triangles>
      </mesh>
    </geometry>
  </library_geometries>
  <library_visual_scenes>
    <visual_scene id="Scene" name="Scene">
      <node id="Cube" name="Cube">
        <instance_geometry url="#cube-mesh">
          <bind_material>
            <technique_common>
              <instance_material symbol="red" target="#red-material">
                <bind_vertex_input semantic="UVMap" input_semantic="TEXCOORD" input_set="0"/>
              </instance_material>
            </technique_common>
          </bind_material>
        </instance_geometry>
      </node>
    </visual_scene>
  </library_visual_scenes>
  <scene>
    <instance_visual_scene url="#Scene"/>
  </scene>
</COLLADA>
